<?xml version="1.0" encoding="iso-8859-1"?>
<!-- Generator: Adobe Illustrator 19.0.0, SVG Export Plug-In . SVG Version: 6.00 Build 0)  -->
<svg version="1.1" id="Capa_1" xmlns="http://www.w3.org/2000/svg" xmlns:xlink="http://www.w3.org/1999/xlink" x="0px" y="0px"
	 viewBox="0 0 511.999 511.999" style="enable-background:new 0 0 511.999 511.999;" xml:space="preserve">
<g>
	<g>
		<path d="M502.476,321.035c-0.064-0.154-0.132-0.307-0.201-0.458c-16.596-36.078-43.652-50.682-54.592-55.307
			c-11.332-4.893-19.835-6.697-23.483-7.47c-0.074-0.028-0.154-0.049-0.229-0.076c-0.226-0.083-0.456-0.157-0.688-0.23
			c-0.121-0.038-0.236-0.085-0.358-0.12c-0.086-0.024-0.171-0.036-0.256-0.059c-0.301-0.081-0.605-0.15-0.914-0.212
			c-0.199-0.04-0.397-0.078-0.596-0.11c-0.137-0.022-0.267-0.057-0.404-0.074c-0.184-0.025-0.364-0.029-0.547-0.047
			c-0.158-0.015-0.316-0.03-0.474-0.04c-0.36-0.023-0.72-0.031-1.076-0.028c-0.11,0.001-0.22-0.001-0.329,0.003
			c-0.139,0.004-0.279-0.004-0.418,0.004c-0.041-0.004-0.084-0.008-0.129-0.013c-3.973-0.384-12.217-1.183-23.625-0.014
			c-16.759,1.376-41.036,10.066-59.149,30.373c-0.109,0.122-0.217,0.247-0.322,0.373c-8.346,9.999-14.646,22.162-18.25,35.219
			c-0.959,2.75-1.061,5.167-1.091,6.556c-0.001,0.006-0.002,0.012-0.003,0.017c-1.092,3.141-1.178,5.979-0.909,8.215
			c-0.021,0.192-0.049,0.384-0.072,0.575c-0.22,1.789-0.554,4.512-0.081,7.801c-0.102,6.002,1.333,11.34,2.514,15.73
			c0.334,1.246,0.65,2.423,0.891,3.467c0.287,1.245,0.761,2.509,1.353,3.643c0.053,0.259,0.112,0.517,0.179,0.772
			c0.719,2.771,1.941,4.813,2.748,6.059c0.547,1.937,1.478,3.745,2.74,5.317l0.797,0.992c0.457,0.951,1.205,2.406,2.389,3.955
			c3.699,4.976,7.855,8.822,11.525,12.22l1.467,1.361c0.438,0.409,0.9,0.792,1.385,1.146c4.767,3.488,9.563,5.754,13.793,7.753
			c0.708,0.334,1.407,0.664,2.094,0.996c0.592,0.285,1.2,0.531,1.822,0.736c4.441,1.464,8.699,2.088,12.121,2.591
			c1.402,0.205,2.727,0.399,3.828,0.616c0.855,0.169,1.723,0.263,2.595,0.28c0.406,0.009,0.81,0.013,1.214,0.013
			c26.439,0,45.404-17.706,49.917-34.652c2.131-8.005-2.631-16.223-10.636-18.354s-16.223,2.63-18.354,10.636
			c-1.148,4.313-8.284,12.159-20.438,12.366c-1.288-0.224-2.544-0.407-3.77-0.587c-2.296-0.337-4.479-0.657-6.309-1.166
			c-0.419-0.199-0.841-0.398-1.266-0.6c-3.033-1.433-5.912-2.793-8.265-4.395c-0.271-0.252-0.544-0.504-0.817-0.758
			c-2.816-2.607-5.486-5.078-7.497-7.666c-0.474-0.991-1.256-2.545-2.554-4.215c0-0.001-0.001-0.002-0.002-0.003
			c-0.592-1.596-1.315-2.878-1.893-3.802c-0.359-1.238-0.805-2.462-1.334-3.663c-0.246-0.975-0.501-1.923-0.75-2.85
			c-0.76-2.828-1.622-6.032-1.474-7.737c0.118-1.35,0.052-2.706-0.194-4.033c0.014-0.104,0.027-0.209,0.041-0.314
			c0.157-1.283,0.373-3.042,0.313-5.158c0.134-0.548,0.255-1.107,0.364-1.684c0.366-1.615,0.465-3.034,0.5-4.049
			c2.443-8.932,6.67-17.194,12.246-23.934c12.268-13.641,28.738-19.444,39.15-20.268c0.123-0.01,0.246-0.021,0.368-0.033
			c8.503-0.884,14.56-0.298,17.812,0.017c0.559,0.055,1.05,0.101,1.517,0.139c0.558,0.135,1.086,0.249,1.561,0.35
			c3.23,0.684,9.242,1.956,17.865,5.684c0.041,0.018,0.082,0.036,0.124,0.053c7.646,3.225,26.714,13.565,38.954,39.999
			c5.225,12.54,7.637,26.888,6.977,41.512c-0.01,0.239-0.016,0.478-0.015,0.717c-0.037,0.175-0.079,0.35-0.118,0.524
			c-0.246,1.108-0.604,2.727-0.768,4.646c-0.162,1.298-0.286,2.621-0.377,4.031c-0.001,0.023-0.002,0.048-0.004,0.072
			c-0.855,2.534-1.338,4.893-1.769,6.997c-0.3,1.466-0.712,3.473-1.046,4.104c-0.547,1.027-0.971,2.114-1.266,3.24
			c-1.77,6.756-6.063,13.719-10.607,21.09l-0.643,1.046c-1.715,2.105-3.291,4.279-4.792,6.603c-0.229,0.251-0.7,0.711-1.058,1.06
			c-1.025,1.003-2.286,2.236-3.576,3.837c-0.633,0.736-1.258,1.489-1.867,2.252l-1.75,1.447c-1.682,1.334-3.044,2.695-4.147,3.796
			c-0.622,0.622-1.328,1.327-1.676,1.594c-0.068,0.052-0.135,0.104-0.201,0.156c-6.697,5.307-14.996,10.205-26.092,15.399
			c-8.322,3.283-18.052,5.648-30.541,7.424c-10.971,0.871-22.544-0.387-32.557-1.795c-10.502-2.881-21.549-6.314-31.662-11.677
			c-11.736-7.116-20.585-13.801-27.791-20.996c-9.397-10.451-16.098-19.64-21.071-28.892c-0.049-0.092-0.099-0.183-0.15-0.273
			c-0.415-0.735-0.896-1.9-1.405-3.134c-0.666-1.614-1.418-3.438-2.441-5.395l-1.607-3.225l-1.032-3.412
			c-0.595-2.091-1.307-3.89-1.936-5.48c-0.406-1.028-0.863-2.185-1.023-2.818c-0.625-3.298-1.395-6.611-2.289-9.864
			c-2.025-12.59-3.548-23.881-2.215-34.225c0.108-0.843,0.146-1.693,0.109-2.542c-0.1-2.397,0.438-5.244,1.059-8.543
			c0.494-2.62,1.055-5.591,1.359-8.782c0.014-0.153,0.026-0.307,0.037-0.461c0.098-0.363,0.35-1.087,0.539-1.632
			c0.457-1.315,1.011-2.906,1.449-4.787c0.087-0.286,0.162-0.563,0.24-0.841c0.051-0.012,0.113-0.029,0.158-0.039
			c0.602-0.123,1.193-0.283,1.775-0.48c0.289-0.094,1.168-0.262,1.811-0.385c2.398-0.458,5.648-1.079,9.189-2.838
			c1.615-0.719,3.503-1.381,5.496-2.08c3.955-1.387,8.397-2.944,12.928-5.631c13.042-5.653,23.797-14.004,35.465-23.512
			c0.449-0.366,0.877-0.758,1.281-1.174c2.001-2.059,4.105-4.035,6.256-5.874c0.111-0.095,0.221-0.191,0.328-0.289
			c2.283-2.071,3.998-4.233,5.375-5.971c0.699-0.883,1.361-1.717,1.842-2.209c0.064-0.066,0.129-0.134,0.192-0.201l3.408-3.624
			c0.586-0.623,1.117-1.295,1.589-2.008l2.775-4.202c0.065-0.097,0.127-0.194,0.19-0.293c0.458-0.73,1.172-1.659,1.93-2.643
			c1.238-1.609,2.638-3.43,3.976-5.668c6.837-11.071,12.417-23.616,17.557-39.467c0.075-0.232,0.145-0.468,0.21-0.704
			c3.371-12.444,5.094-25.969,5.422-42.562c0.005-0.26,0.004-0.518-0.005-0.778c-0.479-14.954-3.778-29.232-6.941-41.227
			c-0.158-0.6-0.353-1.189-0.585-1.765c-4.52-11.256-10.253-24.362-18.51-36.237c-0.158-0.227-0.322-0.449-0.492-0.667
			c-9.531-12.21-18.23-21.247-27.375-28.442c-0.219-0.172-0.442-0.339-0.671-0.498c-12.14-8.501-22.563-14.353-32.792-18.413
			c-2.182-0.897-4.198-1.44-5.825-1.877c-0.772-0.208-1.733-0.466-2.116-0.621c-0.129-0.052-0.258-0.101-0.388-0.15l-3.822-1.425
			c-1.07-0.399-2.183-0.675-3.315-0.821c-1.059-0.137-2.12-0.308-3.154-0.507c-0.246-0.047-0.488-0.088-0.736-0.123
			c-0.275-0.042-1.064-0.264-1.641-0.425c-1.762-0.494-4.174-1.171-7.07-1.407c-0.193-0.016-0.389-0.027-0.584-0.036
			c-2.047-0.087-3.982-0.295-5.916-0.638c-0.728-0.129-1.467-0.203-2.207-0.224l-2.256-0.063
			c-9.986-0.287-20.296-0.584-30.817,2.017c-4.185,0.404-7.698,1.575-10.595,2.54c-1.197,0.399-2.433,0.811-3.252,0.992
			c-2.67,0.382-5.272,1.284-7.912,2.745c-0.691,0.333-1.313,0.612-1.889,0.85c-0.281,0.115-0.559,0.239-0.833,0.371
			c-0.247,0.09-0.501,0.162-0.75,0.24c-1.602,0.505-3.941,1.242-6.481,2.773c-16.766,8.792-31.328,20.952-42.145,35.198
			c-0.101,0.132-0.199,0.267-0.295,0.402c-22.954,32.421-22.063,63.153-20.598,74.937c1.426,12.247,4.113,20.512,5.268,24.058
			c0.014,0.086,0.036,0.171,0.052,0.257c0.032,0.189,0.072,0.378,0.112,0.567c0.026,0.121,0.043,0.242,0.072,0.363
			c0.025,0.105,0.064,0.205,0.092,0.311c0.076,0.291,0.161,0.581,0.257,0.87c0.066,0.204,0.138,0.404,0.213,0.604
			c0.055,0.146,0.095,0.293,0.154,0.438c0.057,0.139,0.128,0.267,0.189,0.401c0.071,0.161,0.146,0.32,0.224,0.479
			c0.148,0.304,0.306,0.6,0.472,0.889c0.064,0.113,0.13,0.226,0.197,0.336c0.087,0.143,0.164,0.294,0.256,0.433
			c0.018,0.039,0.035,0.078,0.054,0.119c1.654,3.632,5.086,11.17,11.803,20.466c9.566,13.824,29.228,30.503,55.878,36.04
			c0.162,0.033,0.322,0.063,0.484,0.092c5.035,0.875,10.2,1.309,15.41,1.309c8.07,0,16.247-1.044,24.211-3.115
			c2.859-0.544,5.003-1.663,6.219-2.329c0.006-0.002,0.012-0.004,0.018-0.006c3.271-0.628,5.775-1.977,7.576-3.325
			c0.178-0.078,0.358-0.15,0.536-0.226c1.659-0.703,4.183-1.774,6.793-3.825c5.268-2.924,9.186-6.855,12.409-10.086
			c0.9-0.903,1.751-1.757,2.527-2.482c0.928-0.865,1.74-1.846,2.42-2.916c0.012-0.017,0.022-0.032,0.029-0.044
			c0.203-0.18,0.402-0.365,0.596-0.556c2.037-2.005,3.193-4.082,3.869-5.404c1.404-1.44,2.506-3.151,3.237-5.03l0.464-1.192
			c0.595-0.872,1.481-2.248,2.23-4.051c2.464-5.7,3.717-11.231,4.824-16.117l0.44-1.928c0.135-0.581,0.234-1.17,0.299-1.763
			c0.637-5.863,0.203-11.138-0.179-15.791c-0.065-0.787-0.128-1.565-0.185-2.333c-0.049-0.657-0.141-1.311-0.275-1.957
			c-0.953-4.577-2.541-8.576-3.817-11.79c-0.523-1.317-1.017-2.563-1.38-3.625c-0.282-0.825-0.635-1.624-1.055-2.388
			C284.312,102.556,259,94.678,241.806,99.31c-7.999,2.155-12.736,10.387-10.582,18.386c2.154,7.999,10.385,12.737,18.385,10.582
			c4.313-1.161,14.678,1.097,20.932,11.518c0.452,1.23,0.921,2.411,1.379,3.564c0.855,2.155,1.67,4.205,2.145,6.046
			c0.037,0.47,0.076,0.942,0.115,1.418c0.274,3.338,0.535,6.507,0.322,9.339l-0.24,1.057c-0.852,3.757-1.658,7.316-2.9,10.357
			c-0.617,0.901-1.566,2.349-2.361,4.297c-0.005,0.006-0.01,0.013-0.014,0.019c-1.085,1.311-1.832,2.578-2.345,3.54
			c-0.888,0.927-1.724,1.922-2.499,2.979c-0.712,0.692-1.397,1.379-2.066,2.05c-2.078,2.085-4.434,4.447-5.998,5.179
			c-1.222,0.57-2.358,1.303-3.381,2.174c-0.098,0.041-0.195,0.081-0.291,0.122c-1.193,0.506-2.829,1.199-4.637,2.313
			c-0.549,0.16-1.102,0.339-1.664,0.536c-1.568,0.488-2.836,1.106-3.727,1.579c-8.955,2.354-18.225,2.826-26.852,1.366
			c-17.954-3.807-31.213-15.167-37.127-23.771c-0.07-0.102-0.143-0.204-0.215-0.305c-5.02-6.927-7.541-12.464-8.895-15.438
			c-0.233-0.513-0.439-0.963-0.642-1.388c-0.163-0.559-0.328-1.072-0.474-1.52c-1.023-3.14-2.927-8.983-4.007-18.308
			c-0.006-0.047-0.012-0.094-0.018-0.141c-1.032-8.23-1.613-29.908,15.162-53.732c8.246-10.796,19.465-20.057,32.459-26.795
			c0.215-0.111,0.426-0.228,0.635-0.349c0.166-0.054,0.334-0.103,0.502-0.156c1.084-0.342,2.666-0.84,4.411-1.66
			c1.169-0.492,2.37-1.043,3.658-1.677c0.03-0.016,0.062-0.031,0.093-0.046c2.623-0.528,4.906-1.289,6.943-1.969
			c1.42-0.473,3.365-1.121,4.084-1.146c1.158-0.042,2.308-0.217,3.426-0.523c6.735-1.844,14.904-1.609,23.555-1.36l1.248,0.035
			c2.672,0.43,5.34,0.709,8.107,0.848c0.332,0.072,0.965,0.25,1.443,0.385c1.383,0.388,3.084,0.864,5.119,1.181
			c0.949,0.179,1.91,0.343,2.875,0.488l2.129,0.794c1.994,0.79,3.854,1.289,5.357,1.694c0.851,0.228,1.815,0.487,2.221,0.657
			c0.082,0.034,0.166,0.067,0.249,0.101c7.933,3.14,16.323,7.875,26.378,14.89c7.006,5.564,13.918,12.808,21.696,22.736
			c6.238,9.065,10.937,19.719,14.726,29.096c2.752,10.519,5.299,21.789,5.715,33.259c-0.293,13.727-1.657,24.732-4.283,34.564
			c-4.359,13.379-8.965,23.773-14.483,32.688c-0.052,0.084-0.103,0.168-0.152,0.252c-0.436,0.736-1.206,1.738-2.022,2.799
			c-1.066,1.386-2.27,2.951-3.454,4.817l-1.983,3.002l-2.443,2.598c-1.511,1.561-2.712,3.076-3.775,4.418
			c-0.687,0.866-1.459,1.84-1.931,2.301c-2.538,2.184-5.025,4.506-7.401,6.916c-9.893,8.047-18.912,15.01-28.53,19.025
			c-0.786,0.328-1.542,0.723-2.261,1.179c-2.023,1.284-4.76,2.244-7.928,3.355c-2.516,0.882-5.367,1.882-8.281,3.213
			c-0.139,0.064-0.276,0.129-0.414,0.197c-0.364,0.097-1.121,0.241-1.69,0.35c-1.364,0.261-3.018,0.577-4.862,1.136
			c-0.293,0.067-0.572,0.142-0.855,0.214c-0.03-0.033-0.072-0.074-0.099-0.104c-0.41-0.462-0.846-0.896-1.309-1.305
			c-0.227-0.204-0.812-0.881-1.238-1.376c-1.598-1.851-3.76-4.355-7.057-6.545c-1.433-1.041-2.953-2.346-4.557-3.724
			c-3.176-2.729-6.744-5.794-11.334-8.373c-11.426-8.479-24.032-13.616-38.097-18.963c-0.544-0.207-1.1-0.382-1.665-0.524
			c-2.745-0.691-5.512-1.526-8.226-2.48c-0.127-0.045-0.255-0.088-0.383-0.129c-2.938-0.945-5.669-1.35-7.864-1.675
			c-1.113-0.165-2.165-0.321-2.833-0.491c-0.096-0.024-0.192-0.048-0.288-0.071l-4.839-1.135c-0.824-0.192-1.663-0.316-2.509-0.368
			l-5.027-0.308c-0.12-0.007-0.24-0.013-0.361-0.018c-0.859-0.031-2.018-0.186-3.244-0.349c-2.018-0.269-4.299-0.571-6.914-0.608
			c-13.02-0.385-26.67,1.055-42.955,4.528c-0.24,0.051-0.479,0.108-0.717,0.171c-12.476,3.31-25.05,8.579-39.567,16.585
			c-0.225,0.124-0.445,0.254-0.663,0.389c-12.69,7.872-23.418,17.879-32.239,26.63c-0.44,0.437-0.854,0.9-1.236,1.389
			c-7.49,9.544-15.977,21.065-22.127,34.147c-0.117,0.25-0.227,0.502-0.331,0.758c-5.805,14.348-9.281,26.401-10.942,37.934
			c-0.04,0.275-0.072,0.552-0.097,0.829c-1.292,14.748-1.15,26.698,0.447,37.593c0.313,2.354,0.855,4.384,1.294,6.021
			c0.205,0.769,0.461,1.725,0.518,2.13c0.019,0.129,0.038,0.259,0.06,0.388l0.675,4.023c0.192,1.143,0.516,2.259,0.964,3.327
			c0.389,0.926,0.766,1.915,1.119,2.938c0.084,0.245,0.173,0.481,0.269,0.722c0.101,0.258,0.302,1.046,0.449,1.622
			c0.454,1.777,1.076,4.211,2.328,6.847c0.08,0.169,0.164,0.337,0.251,0.503c0.946,1.814,1.73,3.59,2.398,5.433
			c0.254,0.701,0.56,1.382,0.915,2.037l1.077,1.993c4.744,8.788,9.643,17.861,17.149,25.666c2.443,3.424,5.214,5.883,7.499,7.909
			c0.945,0.839,1.919,1.703,2.486,2.322c1.665,2.12,3.75,3.923,6.338,5.482c0.604,0.409,1.168,0.815,1.719,1.237
			c0.224,0.172,0.452,0.337,0.685,0.496c0.203,0.171,0.394,0.354,0.588,0.533c1.239,1.136,3.049,2.794,5.645,4.228
			c16.009,10.131,33.823,16.662,51.56,18.898c0.163,0.022,0.326,0.039,0.49,0.054c3.95,0.367,7.768,0.536,11.448,0.536
			c33.16,0,55.226-13.721,63.752-20.165c9.893-7.358,15.704-13.818,18.198-16.593c0.297-0.24,0.586-0.494,0.869-0.761
			c0.054-0.051,0.1-0.107,0.152-0.159c0.197-0.19,0.385-0.393,0.572-0.597c0.191-0.208,0.379-0.417,0.557-0.632
			c0.087-0.106,0.185-0.198,0.27-0.308c0.102-0.129,0.185-0.267,0.28-0.397c0.1-0.137,0.196-0.273,0.29-0.412
			c0.198-0.291,0.384-0.585,0.559-0.885c0.061-0.104,0.121-0.21,0.18-0.315c0.089-0.163,0.191-0.32,0.273-0.484
			c0.025-0.034,0.05-0.069,0.076-0.105c2.32-3.249,7.135-9.99,11.828-20.462c7.188-15.199,11.799-40.565,3.27-66.41
			c-0.052-0.157-0.105-0.314-0.163-0.469c-4.489-12.227-11.868-23.757-21.367-33.397c-1.902-2.211-3.947-3.509-5.136-4.232
			c-0.004-0.004-0.008-0.007-0.012-0.01c-2.178-2.518-4.592-4.011-6.66-4.896c-0.156-0.114-0.309-0.233-0.461-0.35
			c-1.441-1.087-3.635-2.74-6.726-3.977c-5.16-3.095-10.515-4.522-14.917-5.697c-1.236-0.33-2.402-0.642-3.422-0.952
			c-1.213-0.37-2.545-0.591-3.813-0.645c-0.248-0.083-0.498-0.159-0.749-0.23c-2.762-0.765-5.142-0.728-6.625-0.653
			c-1.949-0.495-3.979-0.594-5.969-0.288l-1.275,0.196c-1.053-0.079-2.686-0.159-4.619,0.094c-6.132,0.712-11.517,2.378-16.272,3.85
			c-0.662,0.205-1.318,0.408-1.97,0.607c-0.579,0.176-1.146,0.387-1.699,0.631c-5.404,2.387-9.764,5.406-13.608,8.069
			c-0.642,0.444-1.276,0.884-1.905,1.311c-0.543,0.37-1.062,0.775-1.552,1.213c-3.488,3.115-6.158,6.49-8.304,9.202
			c-0.879,1.111-1.71,2.16-2.448,3.006c-0.573,0.656-1.089,1.361-1.54,2.107c-14.012,23.164-8.174,49.026,4.432,61.598
			c5.866,5.85,15.362,5.838,21.214-0.028c5.85-5.866,5.837-15.363-0.029-21.214c-3.161-3.152-6.39-13.258-0.493-23.886
			c0.837-1.003,1.624-1.997,2.392-2.968c1.44-1.82,2.812-3.553,4.171-4.888c0.38-0.261,0.761-0.525,1.145-0.791
			c2.758-1.91,5.376-3.724,7.94-4.962c0.373-0.115,0.748-0.23,1.124-0.348c3.649-1.129,7.109-2.199,10.336-2.642
			c1.094,0.085,2.825,0.183,4.915-0.105c0.009,0.001,0.019,0.003,0.028,0.004c1.667,0.281,3.131,0.295,4.213,0.259
			c1.256,0.309,2.542,0.535,3.852,0.678c0.953,0.27,1.887,0.518,2.801,0.763c2.842,0.758,6.064,1.618,7.483,2.609
			c1.107,0.773,2.313,1.394,3.582,1.843c0.082,0.063,0.164,0.126,0.247,0.188c1.033,0.779,2.451,1.849,4.318,2.857
			c0.408,0.391,0.832,0.774,1.278,1.158c1.208,1.118,2.38,1.91,3.237,2.446c6.518,6.576,11.562,14.369,14.616,22.576
			c5.68,17.447,2.471,34.61-2.023,44.037c-0.053,0.112-0.105,0.225-0.156,0.339c-3.488,7.813-7.022,12.763-8.922,15.422
			c-0.326,0.457-0.612,0.858-0.879,1.245c-0.404,0.423-0.769,0.824-1.084,1.176c-2.207,2.456-6.314,7.026-13.849,12.624
			c-0.036,0.027-0.072,0.055-0.108,0.081c-6.618,5.012-25.108,16.357-54.122,13.737c-13.461-1.737-27.091-6.822-39.434-14.712
			c-0.202-0.129-0.408-0.254-0.617-0.374c-0.132-0.119-0.261-0.241-0.393-0.362c-0.84-0.77-2.066-1.894-3.653-2.997
			c-1.059-0.799-2.168-1.585-3.306-2.341c-0.015-0.01-0.029-0.02-0.044-0.029c-1.768-2.007-3.569-3.605-5.175-5.029
			c-1.12-0.994-2.655-2.355-3.036-2.965c-0.616-0.984-1.344-1.893-2.17-2.71c-4.96-4.906-8.842-12.097-12.952-19.71l-0.596-1.102
			c-0.963-2.532-2.057-4.986-3.322-7.456c-0.102-0.32-0.264-0.954-0.386-1.434c-0.357-1.393-0.794-3.104-1.539-5.028
			c-0.324-0.926-0.663-1.84-1.013-2.734l-0.376-2.242c-0.313-2.112-0.809-3.965-1.209-5.463c-0.217-0.809-0.485-1.815-0.541-2.245
			c-0.012-0.096-0.025-0.192-0.039-0.288c-1.249-8.448-1.344-18.082-0.295-30.287c1.319-8.864,4.136-18.474,8.842-30.164
			c4.728-9.929,11.605-19.325,17.834-27.296c7.746-7.655,16.243-15.506,25.943-21.579c12.021-6.605,22.234-10.928,32.077-13.575
			c13.756-2.912,25.065-4.12,35.554-3.8c0.104,0.003,0.208,0.005,0.313,0.006c0.848,0.008,2.099,0.175,3.423,0.351
			c1.729,0.229,3.683,0.489,5.887,0.582l3.599,0.22l3.475,0.815c2.103,0.527,4.012,0.81,5.701,1.06
			c1.098,0.163,2.332,0.346,2.962,0.524c3.196,1.116,6.452,2.106,9.696,2.95c11.908,4.539,22.441,8.864,30.732,15.193
			c0.678,0.518,1.398,0.976,2.154,1.371c2.125,1.109,4.323,2.999,6.869,5.186c2.021,1.737,4.314,3.706,6.925,5.564
			c0.124,0.089,0.25,0.175,0.376,0.26c0.267,0.267,0.772,0.853,1.152,1.293c0.906,1.049,2.004,2.319,3.405,3.635
			c0.207,0.222,0.411,0.429,0.616,0.639c-0.014,0.043-0.027,0.1-0.041,0.139c-0.197,0.592-0.357,1.193-0.479,1.806
			c-0.064,0.298-0.357,1.141-0.57,1.756c-0.802,2.306-1.888,5.427-2.134,9.37c-0.185,1.761-0.556,3.728-0.947,5.805
			c-0.775,4.115-1.646,8.737-1.587,14.002c-1.628,14.13,0.229,27.619,2.632,42.478c0.092,0.568,0.217,1.132,0.373,1.687
			c0.78,2.757,1.441,5.574,1.965,8.374c0.025,0.135,0.053,0.269,0.081,0.402c0.65,3.018,1.665,5.582,2.479,7.643
			c0.414,1.045,0.805,2.032,0.988,2.688c0.028,0.102,0.058,0.203,0.088,0.304l1.439,4.762c0.244,0.81,0.558,1.597,0.936,2.354
			l2.248,4.508c0.054,0.108,0.109,0.217,0.166,0.323c0.4,0.757,0.846,1.836,1.316,2.978c0.776,1.882,1.654,4.01,2.931,6.294
			c6.181,11.47,14.255,22.574,25.4,34.934c0.163,0.181,0.331,0.358,0.503,0.531c9.096,9.146,19.945,17.401,34.145,25.979
			c0.221,0.133,0.445,0.261,0.673,0.383c13.163,7.052,27.192,11.339,39.18,14.603c0.599,0.163,1.206,0.288,1.82,0.376
			c9.06,1.293,19.378,2.516,30.091,2.516c3.484,0,7.012-0.13,10.549-0.428c0.277-0.023,0.553-0.055,0.827-0.093
			c15.337-2.153,27.51-5.168,38.31-9.487c0.259-0.103,0.514-0.214,0.767-0.331c13.427-6.258,23.712-12.357,32.354-19.193
			c1.867-1.442,3.345-2.918,4.536-4.109c0.565-0.565,1.268-1.267,1.591-1.52c0.109-0.085,0.219-0.172,0.325-0.261l3.146-2.6
			c0.884-0.73,1.681-1.56,2.375-2.472c0.638-0.836,1.309-1.661,1.996-2.453c0.168-0.192,0.327-0.386,0.484-0.587
			c0.175-0.218,0.761-0.79,1.188-1.208c1.312-1.282,3.106-3.037,4.761-5.432c0.109-0.159,0.217-0.32,0.32-0.483
			c1.092-1.719,2.239-3.289,3.509-4.801c0.476-0.566,0.909-1.167,1.296-1.798l1.172-1.903c5.247-8.51,10.664-17.295,13.672-27.712
			c1.744-3.826,2.486-7.455,3.1-10.446c0.254-1.236,0.514-2.51,0.766-3.308c1.007-2.503,1.527-5.213,1.582-8.238
			c0.054-0.741,0.123-1.424,0.209-2.076c0.039-0.289,0.069-0.579,0.091-0.87c0.046-0.263,0.111-0.52,0.169-0.778
			c0.363-1.639,0.895-4.033,0.84-6.997C512.654,356.217,509.404,337.524,502.476,321.035z"/>
	</g>
</g>
<g>
</g>
<g>
</g>
<g>
</g>
<g>
</g>
<g>
</g>
<g>
</g>
<g>
</g>
<g>
</g>
<g>
</g>
<g>
</g>
<g>
</g>
<g>
</g>
<g>
</g>
<g>
</g>
<g>
</g>
</svg>
