<?xml version="1.0" encoding="iso-8859-1"?>
<!-- Generator: Adobe Illustrator 19.0.0, SVG Export Plug-In . SVG Version: 6.00 Build 0)  -->
<svg version="1.1" id="Capa_1" xmlns="http://www.w3.org/2000/svg" xmlns:xlink="http://www.w3.org/1999/xlink" x="0px" y="0px"
	 viewBox="0 0 511.997 511.997" style="enable-background:new 0 0 511.997 511.997;" xml:space="preserve">
<g>
	<g>
		<path d="M447.541,210.671c-5.351-5.353-12.466-8.3-20.036-8.3c-5.255,0-10.292,1.421-14.67,4.08
			c-4.379-2.659-9.414-4.08-14.669-4.08c-7.568,0-14.683,2.948-20.035,8.298c-5.352,5.352-8.3,12.466-8.3,20.036
			c0,7.569,2.949,14.684,8.3,20.034l29.339,29.339c1.423,1.424,3.353,2.223,5.366,2.223c2.013,0,3.943-0.799,5.366-2.223
			l29.338-29.338c5.352-5.352,8.3-12.466,8.3-20.035C455.84,223.136,452.892,216.021,447.541,210.671z M436.809,240.008
			l-23.972,23.972l-23.972-23.973c-2.485-2.484-3.854-5.788-3.854-9.301c-0.001-3.514,1.368-6.818,3.853-9.303
			c2.485-2.485,5.79-3.854,9.303-3.854c3.513,0,6.817,1.368,9.303,3.854c1.424,1.424,3.353,2.223,5.367,2.223
			c2.013,0,3.943-0.8,5.366-2.223c2.485-2.485,5.789-3.853,9.303-3.853c3.514,0,6.818,1.368,9.303,3.855
			c2.485,2.484,3.854,5.788,3.854,9.301S439.294,237.523,436.809,240.008z"/>
	</g>
</g>
<g>
	<g>
		<path d="M334.417,96.499c0-25.776-10.038-50.009-28.264-68.235C287.927,10.038,263.694,0,237.919,0
			c-23.32,0-45.38,8.217-62.87,23.282C157.56,8.217,135.502,0,112.18,0C86.404,0,62.172,10.038,43.945,28.264
			C25.719,46.49,15.681,70.723,15.681,96.499c-0.001,25.743,10.012,49.948,28.194,68.166l112.412,118.057l-8.676,26.019
			c-0.005,0.016-0.008,0.031-0.013,0.047c-0.054,0.164-0.097,0.332-0.14,0.5c-0.021,0.084-0.047,0.168-0.065,0.253
			c-0.027,0.128-0.047,0.259-0.067,0.39c-0.02,0.129-0.044,0.256-0.059,0.385c-0.009,0.087-0.012,0.177-0.018,0.265
			c-0.013,0.172-0.025,0.342-0.026,0.513c0,0.017-0.002,0.032-0.002,0.05c0,0.062,0.008,0.121,0.009,0.183
			c0.004,0.174,0.01,0.348,0.026,0.521c0.009,0.1,0.024,0.197,0.037,0.296c0.019,0.144,0.038,0.286,0.066,0.428
			c0.023,0.122,0.054,0.243,0.083,0.363c0.027,0.113,0.055,0.228,0.087,0.339c0.039,0.137,0.086,0.269,0.133,0.402
			c0.034,0.095,0.067,0.19,0.104,0.283c0.054,0.136,0.114,0.267,0.176,0.399c0.043,0.09,0.084,0.18,0.13,0.269
			c0.064,0.123,0.133,0.243,0.202,0.361c0.056,0.094,0.111,0.188,0.171,0.281c0.068,0.104,0.14,0.205,0.211,0.306
			c0.073,0.102,0.147,0.202,0.225,0.3c0.068,0.085,0.14,0.167,0.21,0.249c0.091,0.104,0.183,0.208,0.28,0.309
			c0.069,0.071,0.141,0.139,0.213,0.206c0.105,0.1,0.213,0.199,0.324,0.294c0.077,0.065,0.156,0.125,0.235,0.187
			c0.111,0.087,0.224,0.173,0.341,0.255c0.095,0.066,0.194,0.126,0.292,0.188c0.105,0.066,0.211,0.133,0.32,0.194
			c0.126,0.071,0.256,0.135,0.387,0.197c0.089,0.044,0.176,0.089,0.267,0.129c0.16,0.07,0.324,0.132,0.489,0.191
			c0.057,0.02,0.11,0.047,0.168,0.066c0.011,0.004,0.022,0.005,0.034,0.008c0.344,0.113,0.7,0.198,1.064,0.262
			c0.079,0.014,0.157,0.025,0.235,0.036c0.329,0.047,0.663,0.078,1.004,0.08c0.021,0.001,0.042,0.005,0.065,0.005
			c0.008,0,0.017-0.002,0.025-0.002h7.009c2.755,2.929,8.002,9.346,11.065,18.514c5.866,17.558,1.157,36.459-13.997,56.18
			c-22.768,29.631-21.546,59.281-16.512,78.935c5.383,21.019,16.06,35.075,16.512,35.663c1.495,1.945,3.746,2.966,6.024,2.966
			c1.614,0,3.24-0.513,4.618-1.571c3.323-2.554,3.947-7.318,1.394-10.642c-0.092-0.119-9.224-12.143-13.844-30.182
			c-6.107-23.84-1.449-46.019,13.844-65.921c22.94-29.855,21.558-54.675,16.359-70.238c-1.77-5.295-4.09-9.884-6.459-13.705h14.412
			c0.008,0,0.017,0.002,0.025,0.002c0.021,0,0.044-0.005,0.065-0.005c0.34-0.003,0.674-0.033,1.003-0.08
			c0.079-0.011,0.157-0.022,0.236-0.036c0.363-0.063,0.718-0.148,1.062-0.261c0.011-0.003,0.023-0.004,0.035-0.008
			c0.06-0.02,0.115-0.047,0.174-0.068c0.162-0.059,0.324-0.118,0.482-0.188c0.093-0.042,0.183-0.087,0.274-0.133
			c0.128-0.063,0.255-0.124,0.378-0.193c0.112-0.063,0.22-0.13,0.328-0.199c0.095-0.061,0.191-0.119,0.284-0.184
			c0.119-0.083,0.233-0.17,0.347-0.259c0.077-0.061,0.155-0.119,0.229-0.182c0.114-0.096,0.223-0.197,0.33-0.299
			c0.07-0.066,0.141-0.133,0.207-0.201c0.099-0.101,0.192-0.206,0.285-0.314c0.07-0.081,0.141-0.161,0.207-0.245
			c0.079-0.099,0.153-0.201,0.228-0.304c0.072-0.1,0.143-0.199,0.21-0.303c0.061-0.093,0.116-0.188,0.172-0.283
			c0.07-0.118,0.139-0.238,0.202-0.36c0.046-0.089,0.088-0.18,0.13-0.27c0.062-0.13,0.121-0.263,0.175-0.398
			c0.038-0.094,0.071-0.19,0.105-0.285c0.047-0.133,0.093-0.265,0.133-0.401c0.032-0.111,0.06-0.225,0.087-0.338
			c0.029-0.121,0.06-0.242,0.083-0.364c0.027-0.142,0.047-0.284,0.066-0.428c0.013-0.099,0.028-0.196,0.037-0.295
			c0.016-0.173,0.022-0.347,0.026-0.521c0.001-0.062,0.009-0.121,0.009-0.183c0-0.016-0.002-0.032-0.002-0.049
			c-0.001-0.171-0.013-0.342-0.025-0.513c-0.006-0.088-0.009-0.177-0.019-0.265c-0.014-0.129-0.038-0.258-0.06-0.387
			c-0.021-0.13-0.038-0.259-0.066-0.387c-0.019-0.086-0.044-0.172-0.066-0.258c-0.043-0.166-0.084-0.332-0.138-0.493
			c-0.005-0.016-0.008-0.032-0.013-0.049l-8.673-26.022l112.407-118.054C324.405,146.448,334.417,122.244,334.417,96.499z
			 M165.341,303.553l5.058-15.171l9.3-0.001l5.057,15.172H165.341z M295.291,154.135L181.917,273.203l-13.734,0.001L54.807,154.135
			c-0.044-0.045-0.086-0.089-0.13-0.133c-15.359-15.359-23.818-35.78-23.818-57.503c0-21.722,8.458-42.143,23.818-57.502
			c15.36-15.36,35.781-23.819,57.503-23.819c21.722,0,42.143,8.459,57.503,23.819c2.963,2.964,7.768,2.964,10.732,0
			c15.361-15.36,35.783-23.819,57.504-23.819c21.721,0,42.142,8.459,57.502,23.819c15.359,15.359,23.818,35.78,23.818,57.502
			c0,21.722-8.459,42.143-23.818,57.503C295.377,154.044,295.334,154.089,295.291,154.135z"/>
	</g>
</g>
<g>
	<g>
		<path d="M289.856,75.413c-2.814-6.921-6.953-13.154-12.315-18.527l-0.02-0.02c-5.393-5.363-11.616-9.511-18.517-12.304
			c-6.648-2.692-13.731-4.068-21.067-4.088h-0.04c-7.134,0.02-14.045,1.326-20.551,3.886c-0.172,0.061-0.334,0.132-0.506,0.202
			c-6.911,2.793-13.144,6.941-18.527,12.314c-2.975,2.985-6.668,5.444-10.675,7.103s-8.348,2.54-12.567,2.54h-0.03
			c-8.655-0.013-17.13-3.525-23.255-9.641c-5.382-5.371-11.611-9.513-18.525-12.319c-6.651-2.686-13.734-4.061-21.1-4.084
			c-7.33,0.023-14.414,1.397-21.064,4.088c-6.893,2.798-13.124,6.938-18.536,12.327c-5.361,5.373-9.503,11.6-12.318,18.526
			c-2.688,6.653-4.062,13.739-4.084,21.109c0.022,7.328,1.401,14.415,4.094,21.054c2.787,6.894,6.926,13.128,12.238,18.463
			l0.634,0.653l96.43,101.267c0.054,0.057,0.112,0.104,0.167,0.158c0.033,0.033,0.063,0.07,0.097,0.102
			c0.042,0.04,0.089,0.076,0.133,0.115c0.106,0.096,0.214,0.191,0.324,0.281c0.091,0.075,0.186,0.146,0.28,0.215
			c0.104,0.077,0.207,0.153,0.314,0.224c0.11,0.073,0.225,0.141,0.338,0.207c0.097,0.057,0.193,0.116,0.292,0.169
			c0.133,0.071,0.268,0.133,0.405,0.194c0.086,0.039,0.171,0.082,0.259,0.118c0.155,0.064,0.314,0.117,0.472,0.171
			c0.074,0.024,0.147,0.054,0.222,0.076c0.173,0.053,0.35,0.093,0.526,0.133c0.065,0.014,0.128,0.033,0.191,0.047
			c0.179,0.035,0.361,0.059,0.543,0.081c0.065,0.008,0.128,0.02,0.192,0.027c0.171,0.016,0.343,0.02,0.516,0.025
			c0.074,0.002,0.149,0.011,0.224,0.011c0.248,0,0.495-0.014,0.742-0.037c0.096-0.009,0.19-0.027,0.286-0.04
			c0.145-0.02,0.289-0.038,0.433-0.066c0.124-0.024,0.246-0.057,0.367-0.087c0.113-0.027,0.227-0.055,0.34-0.088
			c0.128-0.038,0.251-0.083,0.376-0.128c0.107-0.038,0.215-0.075,0.32-0.118c0.118-0.049,0.234-0.102,0.349-0.157
			c0.111-0.053,0.223-0.105,0.332-0.163c0.102-0.055,0.202-0.112,0.302-0.172c0.12-0.071,0.24-0.145,0.357-0.223
			c0.084-0.057,0.167-0.115,0.249-0.175c0.128-0.093,0.253-0.19,0.375-0.291c0.068-0.057,0.134-0.114,0.2-0.173
			c0.067-0.06,0.138-0.113,0.203-0.175c0.061-0.058,0.111-0.12,0.17-0.178c0.029-0.03,0.062-0.057,0.091-0.087l41.871-43.965
			c1.396-1.467,2.135-3.39,2.084-5.413c-0.051-2.034-0.88-3.916-2.348-5.312c-1.417-1.356-3.278-2.095-5.231-2.095
			c-2.105,0-4.057,0.84-5.505,2.358l-36.363,38.194l-90.99-95.553l-0.753-0.773c-3.939-3.957-6.963-8.502-8.989-13.515
			c-1.964-4.843-2.969-10.025-2.985-15.358c0.017-5.382,1.019-10.572,2.973-15.41c2.044-5.027,5.07-9.571,8.977-13.487
			c3.957-3.938,8.505-6.968,13.51-8.998c4.841-1.959,10.026-2.96,15.364-2.977c5.378,0.017,10.565,1.019,15.405,2.974
			c5.017,2.036,9.558,5.061,13.498,8.993c8.947,8.935,21.333,14.066,33.981,14.078c0.002,0,0.004,0,0.007,0s0.006-0.001,0.01-0.001
			c6.314-0.01,12.507-1.255,18.375-3.683c5.879-2.439,11.12-5.93,15.603-10.392c3.946-3.936,8.479-6.962,13.508-8.995
			c0.081-0.04,0.182-0.081,0.273-0.111l0.071-0.03c4.746-1.862,9.795-2.813,15.026-2.833c5.373,0.02,10.554,1.022,15.39,2.975
			c5.009,2.034,9.552,5.069,13.508,9.006c0,0,0,0,0.01,0c3.906,3.936,6.931,8.469,8.965,13.488
			c1.953,4.827,2.955,10.007,2.975,15.38c-0.02,5.373-1.022,10.544-2.985,15.38c-2.024,5.009-5.049,9.562-8.985,13.518
			l-34.444,36.144c-1.396,1.467-2.135,3.39-2.084,5.424c0.051,2.024,0.88,3.906,2.347,5.302c1.417,1.356,3.278,2.095,5.232,2.095
			c2.104,0,4.058-0.83,5.505-2.348c0-0.01,0-0.01,0.01-0.02l33.594-35.273l0.658-0.678c0,0,0,0,0-0.01
			c5.353-5.383,9.471-11.596,12.233-18.456c2.702-6.638,4.078-13.721,4.098-21.057v-0.04
			C293.924,89.154,292.547,82.071,289.856,75.413z"/>
	</g>
</g>
<g>
	<g>
		<path d="M489.748,173.422c-4.199-9.946-10.22-18.871-17.88-26.541c-7.67-7.66-16.595-13.68-26.541-17.89
			c-10.291-4.351-21.219-6.557-32.491-6.557h-0.01c-11.464,0-22.585,2.287-33.047,6.8c-10.108,4.361-19.124,10.584-26.804,18.497
			c-1.417,1.457-2.176,3.37-2.145,5.403c0.02,2.024,0.84,3.916,2.297,5.333c1.427,1.386,3.299,2.145,5.282,2.145
			c2.074,0,4.007-0.82,5.444-2.297c6.314-6.486,13.701-11.586,21.947-15.148c8.54-3.683,17.637-5.555,27.037-5.555
			c18.234,0,35.385,7.103,48.296,20.004c12.901,12.911,20.004,30.062,20.004,48.296v60.712c0,18.234-7.103,35.385-20.004,48.296
			c-12.911,12.891-30.062,20.004-48.296,20.004c-7.882,0-15.613-1.336-22.959-3.956c-6.538-2.337-12.679-5.656-18.234-9.866
			c-5.505-4.159-10.331-9.117-14.348-14.723c-8.358-11.636-12.76-25.388-12.76-39.756v-60.712c0-8.55,1.558-16.888,4.634-24.78
			c1.518-3.906-0.425-8.307-4.321-9.825c-0.88-0.344-1.811-0.526-2.752-0.526c-3.147,0-5.919,1.892-7.063,4.827
			c-0.01,0.01-0.01,0.01-0.01,0.01c-3.764,9.652-5.666,19.843-5.666,30.295v60.712c0.01,17.566,5.403,34.373,15.593,48.6
			c4.918,6.85,10.817,12.901,17.536,17.991c6.79,5.139,14.287,9.198,22.281,12.051c2.651,0.945,5.345,1.736,8.067,2.406
			l-7.449,22.84c-0.005,0.016-0.008,0.032-0.013,0.048c-0.046,0.144-0.082,0.291-0.118,0.438c-0.025,0.1-0.057,0.2-0.078,0.301
			c-0.025,0.122-0.041,0.248-0.062,0.372c-0.02,0.13-0.045,0.257-0.059,0.386c-0.011,0.102-0.012,0.205-0.019,0.308
			c-0.01,0.151-0.022,0.303-0.023,0.452c0,0.018-0.002,0.035-0.002,0.053c0,0.107,0.012,0.21,0.016,0.316
			c0.005,0.123,0.007,0.248,0.019,0.37c0.015,0.167,0.041,0.33,0.067,0.493c0.012,0.074,0.02,0.15,0.034,0.223
			c0.036,0.195,0.084,0.386,0.136,0.577c0.011,0.041,0.02,0.081,0.031,0.121c0.059,0.204,0.128,0.404,0.203,0.601
			c0.011,0.028,0.019,0.057,0.031,0.084c0.077,0.195,0.164,0.386,0.257,0.572c0.016,0.032,0.03,0.066,0.047,0.098
			c0.089,0.174,0.187,0.342,0.289,0.509c0.027,0.046,0.055,0.092,0.083,0.137c0.095,0.148,0.197,0.29,0.303,0.431
			c0.045,0.06,0.087,0.119,0.133,0.177c0.098,0.124,0.202,0.243,0.309,0.36c0.06,0.067,0.118,0.135,0.18,0.198
			c0.104,0.108,0.214,0.211,0.325,0.312c0.069,0.064,0.138,0.13,0.209,0.191c0.122,0.104,0.251,0.202,0.38,0.299
			c0.064,0.048,0.124,0.097,0.19,0.144c0.164,0.115,0.335,0.222,0.508,0.324c0.032,0.019,0.064,0.039,0.097,0.059
			c0.76,0.433,1.6,0.734,2.493,0.882c0.044,0.007,0.087,0.013,0.131,0.02c0.365,0.055,0.736,0.091,1.116,0.091h5.564
			c-0.75,1.63-1.454,3.394-2.057,5.322c-6.086,19.479,2.238,38.932,10.295,51.821c21.919,35.069,1.46,60.9,0.605,61.95
			c-2.683,3.22-2.248,8.005,0.971,10.688c1.419,1.182,3.141,1.76,4.854,1.759c2.173,0,4.333-0.93,5.834-2.731
			c0.304-0.364,7.477-9.085,11.018-23.255c3.242-12.967,4.068-33.287-10.413-56.456c-17.542-28.068-7.662-44.07-3.319-49.099h17.121
			c0.38,0,0.751-0.037,1.116-0.091c0.044-0.007,0.087-0.012,0.131-0.02c0.881-0.147,1.71-0.439,2.462-0.863
			c0.052-0.028,0.101-0.062,0.152-0.093c0.148-0.087,0.295-0.175,0.436-0.273c0.128-0.087,0.248-0.182,0.37-0.276
			c0.063-0.049,0.128-0.095,0.188-0.145c0.15-0.124,0.291-0.257,0.431-0.393c0.032-0.031,0.066-0.06,0.097-0.091
			c0.137-0.138,0.265-0.283,0.392-0.431c0.034-0.039,0.07-0.078,0.103-0.118c0.108-0.133,0.209-0.273,0.31-0.414
			c0.047-0.065,0.094-0.129,0.139-0.195c0.081-0.121,0.154-0.248,0.228-0.374c0.054-0.092,0.109-0.184,0.16-0.279
			c0.018-0.034,0.04-0.067,0.058-0.101c0.042-0.082,0.073-0.166,0.111-0.249c0.052-0.111,0.104-0.224,0.151-0.338
			c0.046-0.112,0.084-0.226,0.124-0.34c0.043-0.119,0.084-0.239,0.12-0.36c0.037-0.124,0.067-0.25,0.097-0.375
			c0.026-0.111,0.055-0.224,0.077-0.337c0.028-0.148,0.049-0.297,0.068-0.446c0.012-0.094,0.026-0.187,0.035-0.281
			c0.016-0.175,0.022-0.351,0.026-0.527c0.001-0.059,0.009-0.115,0.009-0.174c0-0.017-0.002-0.033-0.002-0.05
			c-0.002-0.179-0.013-0.357-0.027-0.537c-0.006-0.078-0.008-0.156-0.016-0.233c-0.016-0.148-0.042-0.295-0.068-0.442
			c-0.018-0.106-0.031-0.214-0.054-0.318c-0.024-0.111-0.057-0.222-0.086-0.333c-0.034-0.134-0.067-0.269-0.108-0.4
			c-0.005-0.015-0.007-0.029-0.012-0.044l-7.446-22.832c4.248-1.047,8.419-2.42,12.485-4.145c9.947-4.199,18.871-10.22,26.541-17.89
			c7.66-7.66,13.68-16.584,17.88-26.531c4.361-10.291,6.567-21.219,6.567-32.491v-60.712
			C496.315,194.64,494.109,183.712,489.748,173.422z M413.023,365.28c-0.076-0.002-0.151,0-0.227,0h-9.743l5-15.33
			c1.589,0.09,3.181,0.152,4.782,0.152c1.602,0,3.195-0.057,4.783-0.146l5,15.324H413.023z"/>
	</g>
</g>
<g>
</g>
<g>
</g>
<g>
</g>
<g>
</g>
<g>
</g>
<g>
</g>
<g>
</g>
<g>
</g>
<g>
</g>
<g>
</g>
<g>
</g>
<g>
</g>
<g>
</g>
<g>
</g>
<g>
</g>
</svg>
